<?xml version="1.0" encoding="UTF-8"?><svg id="Ebene_2" xmlns="http://www.w3.org/2000/svg" viewBox="0 0 368 177.5"><defs><style>.cls-1{isolation:isolate;}.cls-2{fill:none;stroke:currentColor;}</style></defs><g id="Ebene_1-2"><g id="_404" class="cls-1"><g class="cls-1"><path class="cls-2" d="M82.5,2.5L25.5,127.5h49.75v-50.75h21.5v50.75h15.75v19.5h-15.75v28h-21.5v-28H.5v-15.75L61.25,2.5h21.25Z"/><path class="cls-2" d="M235,127.25c0,31.75-23.5,49.75-49.5,49.75s-49.5-18-49.5-50V50.5c0-32,23.5-50,49.5-50s49.5,18,49.5,49.75v77ZM185.5,20c-15.75,0-28.25,11.75-28.25,30.25v77c0,18.5,12.5,30.25,28.25,30.25s28-11.75,28-30.25V50.25c0-18.5-12.5-30.25-28-30.25Z"/><path class="cls-2" d="M337.5,2.5l-57,125h49.75v-50.75h21.5v50.75h15.75v19.5h-15.75v28h-21.5v-28h-74.75v-15.75L316.25,2.5h21.25Z"/></g></g></g></svg>
