
<svg width="184px" height="53px" viewBox="0 0 184 53" version="1.1" xmlns="http://www.w3.org/2000/svg" xmlns:xlink="http://www.w3.org/1999/xlink">
    <g id="Page-1" stroke="none" stroke-width="1" fill="none" fill-rule="evenodd">
        <g id="Group-2" transform="translate(0.000000, 0.250000)" fill="currentColor" fill-rule="nonzero">
            <path d="M0,11.25 L0,0.11 L3.55,0.11 C6.02,0.11 7.59,1.5 7.59,5.1 L7.59,6.26 C7.59,9.86 6.02,11.25 3.55,11.25 L0,11.25 L0,11.25 Z M6.2,6.26 L6.2,5.1 C6.2,2.34 5.26,1.37 3.55,1.37 L1.39,1.37 L1.39,9.99 L3.55,9.99 C5.26,9.99 6.2,9.02 6.2,6.26 L6.2,6.26 Z" id="Shape"></path>
            <path d="M16.19,11.25 L13.87,6.55 L11.24,6.55 L11.24,11.25 L9.85,11.25 L9.85,0.11 L13.4,0.11 C15.97,0.11 17.45,1.18 17.45,3.34 C17.45,4.91 16.68,5.89 15.25,6.31 L17.74,11.25 L16.19,11.25 Z M13.4,5.29 C15.29,5.29 16.06,4.71 16.06,3.34 C16.06,1.97 15.29,1.37 13.4,1.37 L11.24,1.37 L11.24,5.29 L13.4,5.29 L13.4,5.29 Z" id="Shape"></path>
            <polygon id="Path" points="21.43 11.25 19.56 11.25 19.56 9.38 21.43 9.38"></polygon>
            <polygon id="Path" points="35.63 11.25 31.89 5.7 29.84 8.22 29.84 11.25 28.45 11.25 28.45 0.11 29.84 0.11 29.84 6.1 34.68 0.11 36.47 0.11 32.81 4.58 37.3 11.25 35.64 11.25"></polygon>
            <path d="M38.46,11.25 L42.33,0.11 L43.62,0.11 L47.49,11.25 L46.02,11.25 L45.16,8.7 L40.77,8.7 L39.91,11.25 L38.44,11.25 L38.46,11.25 Z M41.23,7.44 L44.75,7.44 L42.99,2.21 L41.23,7.44 L41.23,7.44 Z" id="Shape"></path>
            <polygon id="Path" points="55.1 0.11 55.1 1.37 51.71 1.37 51.71 11.25 50.32 11.25 50.32 1.37 46.93 1.37 46.93 0.11"></polygon>
            <polygon id="Path" points="58.24 4.85 63.02 4.85 63.02 0.1 64.41 0.1 64.41 11.24 63.02 11.24 63.02 6.11 58.24 6.11 58.24 11.24 56.85 11.24 56.85 0.1 58.24 0.1 58.24 4.85"></polygon>
            <path d="M73.43,11.25 L71.11,6.55 L68.48,6.55 L68.48,11.25 L67.09,11.25 L67.09,0.11 L70.64,0.11 C73.21,0.11 74.69,1.18 74.69,3.34 C74.69,4.91 73.92,5.89 72.49,6.31 L74.98,11.25 L73.43,11.25 Z M70.64,5.29 C72.53,5.29 73.3,4.71 73.3,3.34 C73.3,1.97 72.53,1.37 70.64,1.37 L68.48,1.37 L68.48,5.29 L70.64,5.29 Z" id="Shape"></path>
            <polygon id="Path" points="78.4 11.25 77.01 11.25 77.01 0.11 78.4 0.11"></polygon>
            <polygon id="Path" points="88.69 0.11 88.69 11.25 87.33 11.25 82.52 2.82 82.52 11.25 81.13 11.25 81.13 0.11 82.45 0.11 87.29 8.62 87.29 0.11 88.68 0.11"></polygon>
            <path d="M101.9,2.58 C101.3,1.81 100.66,1.24 99.25,1.24 C97.96,1.24 97.09,1.82 97.09,2.98 C97.09,4.3 98.09,4.76 99.72,5.05 C101.87,5.42 103.17,6.2 103.17,8.26 C103.17,9.71 102.2,11.38 99.43,11.38 C97.62,11.38 96.3,10.77 95.46,9.56 L96.61,8.77 C97.34,9.63 97.98,10.13 99.43,10.13 C101.25,10.13 101.79,9.29 101.79,8.34 C101.79,7.29 101.26,6.58 99.16,6.26 C97.06,5.94 95.71,4.94 95.71,3 C95.71,1.4 96.76,5.68434189e-14 99.31,5.68434189e-14 C101.09,5.68434189e-14 102.2,0.6 102.99,1.82 L101.91,2.59 L101.9,2.58 Z" id="Path"></path>
            <path d="M111.63,3.58 C111.24,1.84 110.36,1.24 108.98,1.24 C107.27,1.24 106.33,2.31 106.33,5.07 L106.33,6.3 C106.33,9.06 107.27,10.13 108.98,10.13 C110.43,10.13 111.26,9.42 111.63,7.79 L112.97,7.79 C112.61,10.29 111.1,11.39 108.98,11.39 C106.51,11.39 104.94,9.91 104.94,6.31 L104.94,5.08 C104.94,1.48 106.51,0 108.98,0 C111.18,0 112.63,1.16 112.98,3.6 L111.62,3.6 L111.63,3.58 Z" id="Path"></path>
            <polygon id="Path" points="116.33 4.85 121.11 4.85 121.11 0.1 122.5 0.1 122.5 11.24 121.11 11.24 121.11 6.11 116.33 6.11 116.33 11.24 114.94 11.24 114.94 0.1 116.33 0.1 116.33 4.85"></polygon>
            <polygon id="Path" points="128.38 11.25 126.99 11.25 124.28 0.11 125.73 0.11 127.75 8.86 130.2 0.11 131.57 0.11 134.07 8.91 136.09 0.11 137.54 0.11 134.83 11.25 133.43 11.25 130.9 2.6 128.38 11.25"></polygon>
            <polygon id="Path" points="146.07 0.11 146.07 1.37 140.74 1.37 140.74 4.86 145.58 4.86 145.58 6.12 140.74 6.12 140.74 9.99 146.07 9.99 146.07 11.25 139.36 11.25 139.36 0.11"></polygon>
            <polygon id="Path" points="149.56 11.25 148.17 11.25 148.17 0.11 149.56 0.11"></polygon>
            <polygon id="Path" points="158.82 0.11 158.82 1.05 153.36 9.99 158.98 9.99 158.98 11.25 151.57 11.25 151.57 10.31 157.01 1.37 151.57 1.37 151.57 0.11"></polygon>
            <polygon id="Path" points="167.64 0.11 167.64 1.37 162.31 1.37 162.31 4.86 167.15 4.86 167.15 6.12 162.31 6.12 162.31 9.99 167.64 9.99 167.64 11.25 160.93 11.25 160.93 0.11"></polygon>
            <path d="M176.01,11.25 L173.69,6.55 L171.06,6.55 L171.06,11.25 L169.67,11.25 L169.67,0.11 L173.22,0.11 C175.79,0.11 177.27,1.18 177.27,3.34 C177.27,4.91 176.5,5.89 175.07,6.31 L177.56,11.25 L176.01,11.25 L176.01,11.25 Z M173.22,5.29 C175.11,5.29 175.88,4.71 175.88,3.34 C175.88,1.97 175.11,1.37 173.22,1.37 L171.06,1.37 L171.06,5.29 L173.22,5.29 Z" id="Shape"></path>
            <path d="M0,31.94 L0,20.8 L3.55,20.8 C6.02,20.8 7.59,22.19 7.59,25.79 L7.59,26.95 C7.59,30.55 6.02,31.94 3.55,31.94 L0,31.94 L0,31.94 Z M6.2,26.95 L6.2,25.79 C6.2,23.03 5.26,22.06 3.55,22.06 L1.39,22.06 L1.39,30.68 L3.55,30.68 C5.26,30.68 6.2,29.71 6.2,26.95 L6.2,26.95 Z" id="Shape"></path>
            <path d="M16.19,31.94 L13.87,27.24 L11.24,27.24 L11.24,31.94 L9.85,31.94 L9.85,20.8 L13.4,20.8 C15.97,20.8 17.45,21.87 17.45,24.03 C17.45,25.6 16.68,26.58 15.25,27 L17.74,31.94 L16.19,31.94 Z M13.4,25.98 C15.29,25.98 16.06,25.4 16.06,24.03 C16.06,22.66 15.29,22.06 13.4,22.06 L11.24,22.06 L11.24,25.98 L13.4,25.98 L13.4,25.98 Z" id="Shape"></path>
            <polygon id="Path" points="21.43 31.94 19.56 31.94 19.56 30.07 21.43 30.07"></polygon>
            <polygon id="Path" points="35.32 20.8 35.32 22.06 31.93 22.06 31.93 31.94 30.54 31.94 30.54 22.06 27.15 22.06 27.15 20.8"></polygon>
            <polygon id="Path" points="38.46 25.54 43.24 25.54 43.24 20.79 44.63 20.79 44.63 31.93 43.24 31.93 43.24 26.8 38.46 26.8 38.46 31.93 37.07 31.93 37.07 20.79 38.46 20.79 38.46 25.54"></polygon>
            <path d="M50.93,32.07 C48.46,32.07 46.89,30.59 46.89,26.99 L46.89,25.76 C46.89,22.16 48.46,20.68 50.93,20.68 C53.4,20.68 54.97,22.17 54.97,25.76 L54.97,26.99 C54.97,30.59 53.4,32.07 50.93,32.07 Z M48.28,26.98 C48.28,29.74 49.22,30.81 50.93,30.81 C52.64,30.81 53.58,29.74 53.58,26.98 L53.58,25.75 C53.58,22.99 52.64,21.92 50.93,21.92 C49.22,21.92 48.28,22.99 48.28,25.75 L48.28,26.98 Z" id="Shape"></path>
            <polygon id="Path" points="61.92 27.74 65.25 20.8 66.62 20.8 66.62 31.94 65.23 31.94 65.23 23.77 62.52 29.61 61.28 29.61 58.62 23.81 58.62 31.93 57.23 31.93 57.23 20.79 58.59 20.79 61.93 27.73"></polygon>
            <path d="M68.42,31.94 L72.29,20.8 L73.58,20.8 L77.45,31.94 L75.98,31.94 L75.12,29.39 L70.73,29.39 L69.87,31.94 L68.4,31.94 L68.42,31.94 Z M71.18,28.13 L74.7,28.13 L72.94,22.9 L71.18,28.13 L71.18,28.13 Z" id="Shape"></path>
            <path d="M85.12,23.27 C84.52,22.5 83.88,21.93 82.47,21.93 C81.18,21.93 80.31,22.51 80.31,23.67 C80.31,24.99 81.31,25.45 82.94,25.74 C85.09,26.11 86.39,26.89 86.39,28.95 C86.39,30.4 85.42,32.07 82.65,32.07 C80.84,32.07 79.52,31.46 78.68,30.25 L79.83,29.46 C80.56,30.32 81.2,30.82 82.65,30.82 C84.47,30.82 85.01,29.98 85.01,29.03 C85.01,27.98 84.48,27.27 82.38,26.95 C80.28,26.63 78.93,25.63 78.93,23.69 C78.93,22.09 79.98,20.69 82.53,20.69 C84.31,20.69 85.42,21.29 86.21,22.51 L85.13,23.28 L85.12,23.27 Z" id="Path"></path>
            <polygon id="Path" points="100.4 31.94 96.66 26.39 94.61 28.91 94.61 31.94 93.22 31.94 93.22 20.8 94.61 20.8 94.61 26.79 99.45 20.8 101.24 20.8 97.58 25.27 102.07 31.94 100.41 31.94"></polygon>
            <path d="M106.78,32.07 C104.31,32.07 102.74,30.59 102.74,26.99 L102.74,25.76 C102.74,22.16 104.31,20.68 106.78,20.68 C109.25,20.68 110.82,22.17 110.82,25.76 L110.82,26.99 C110.82,30.59 109.25,32.07 106.78,32.07 Z M104.13,26.98 C104.13,29.74 105.07,30.81 106.78,30.81 C108.49,30.81 109.43,29.74 109.43,26.98 L109.43,25.75 C109.43,22.99 108.49,21.92 106.78,21.92 C105.07,21.92 104.13,22.99 104.13,25.75 L104.13,26.98 Z M104.35,17.91 L105.8,17.91 L105.8,19.36 L104.35,19.36 L104.35,17.91 Z M107.74,17.91 L109.19,17.91 L109.19,19.36 L107.74,19.36 L107.74,17.91 Z" id="Shape"></path>
            <polygon id="Path" points="114.46 25.54 119.24 25.54 119.24 20.79 120.63 20.79 120.63 31.93 119.24 31.93 119.24 26.8 114.46 26.8 114.46 31.93 113.07 31.93 113.07 20.79 114.46 20.79 114.46 25.54"></polygon>
            <polygon id="Path" points="124.69 30.68 130.02 30.68 130.02 31.94 123.31 31.94 123.31 20.8 124.7 20.8 124.7 30.68"></polygon>
            <polygon id="Path" points="138.45 20.8 138.45 22.06 133.12 22.06 133.12 25.55 137.96 25.55 137.96 26.81 133.12 26.81 133.12 30.68 138.45 30.68 138.45 31.94 131.74 31.94 131.74 20.8"></polygon>
            <path d="M146.81,31.94 L144.49,27.24 L141.86,27.24 L141.86,31.94 L140.47,31.94 L140.47,20.8 L144.02,20.8 C146.59,20.8 148.07,21.87 148.07,24.03 C148.07,25.6 147.3,26.58 145.87,27 L148.36,31.94 L146.81,31.94 L146.81,31.94 Z M144.02,25.98 C145.91,25.98 146.68,25.4 146.68,24.03 C146.68,22.66 145.91,22.06 144.02,22.06 L141.86,22.06 L141.86,25.98 L144.02,25.98 Z" id="Shape"></path>
            <path d="M0,52.63 L0,41.49 L3.55,41.49 C6.02,41.49 7.59,42.88 7.59,46.48 L7.59,47.64 C7.59,51.24 6.02,52.63 3.55,52.63 L0,52.63 L0,52.63 Z M6.2,47.64 L6.2,46.48 C6.2,43.72 5.26,42.75 3.55,42.75 L1.39,42.75 L1.39,51.37 L3.55,51.37 C5.26,51.37 6.2,50.4 6.2,47.64 L6.2,47.64 Z" id="Shape"></path>
            <path d="M16.19,52.63 L13.87,47.93 L11.24,47.93 L11.24,52.63 L9.85,52.63 L9.85,41.49 L13.4,41.49 C15.97,41.49 17.45,42.56 17.45,44.72 C17.45,46.29 16.68,47.27 15.25,47.69 L17.74,52.63 L16.19,52.63 Z M13.4,46.67 C15.29,46.67 16.06,46.09 16.06,44.72 C16.06,43.35 15.29,42.75 13.4,42.75 L11.24,42.75 L11.24,46.67 L13.4,46.67 L13.4,46.67 Z" id="Shape"></path>
            <polygon id="Path" points="21.43 52.63 19.56 52.63 19.56 50.76 21.43 50.76"></polygon>
            <polygon id="Path" points="35.16 41.49 35.16 42.75 29.83 42.75 29.83 46.24 34.67 46.24 34.67 47.5 29.83 47.5 29.83 51.37 35.16 51.37 35.16 52.63 28.45 52.63 28.45 41.49 35.16 41.49"></polygon>
            <polygon id="Path" points="41.88 48.43 45.21 41.49 46.58 41.49 46.58 52.63 45.19 52.63 45.19 44.46 42.48 50.3 41.24 50.3 38.58 44.5 38.58 52.62 37.19 52.62 37.19 41.48 38.55 41.48 41.89 48.42"></polygon>
            <polygon id="Path" points="55.98 41.49 55.98 42.75 50.65 42.75 50.65 46.24 55.49 46.24 55.49 47.5 50.65 47.5 50.65 51.37 55.98 51.37 55.98 52.63 49.27 52.63 49.27 41.49 55.98 41.49"></polygon>
            <polygon id="Path" points="59.39 51.37 64.72 51.37 64.72 52.63 58.01 52.63 58.01 41.49 59.4 41.49 59.4 51.37"></polygon>
            <polygon id="Path" points="67.9 52.63 66.51 52.63 66.51 41.49 67.9 41.49"></polygon>
            <polygon id="Path" points="77.34 41.49 77.34 42.75 72.01 42.75 72.01 46.24 76.85 46.24 76.85 47.5 72.01 47.5 72.01 51.37 77.34 51.37 77.34 52.63 70.63 52.63 70.63 41.49"></polygon>
            <polygon id="Path" points="90.75 41.49 90.75 42.75 85.42 42.75 85.42 46.24 90.26 46.24 90.26 47.5 85.42 47.5 85.42 51.37 90.75 51.37 90.75 52.63 84.04 52.63 84.04 41.49"></polygon>
            <polygon id="Path" points="99.96 52.63 96.22 47.08 94.17 49.6 94.17 52.63 92.78 52.63 92.78 41.49 94.17 41.49 94.17 47.48 99.01 41.49 100.8 41.49 97.14 45.96 101.63 52.63 99.97 52.63"></polygon>
            <polygon id="Path" points="110.57 52.63 106.83 47.08 104.78 49.6 104.78 52.63 103.39 52.63 103.39 41.49 104.78 41.49 104.78 47.48 109.62 41.49 111.41 41.49 107.75 45.96 112.24 52.63 110.58 52.63"></polygon>
            <polygon id="Path" points="120.7 41.49 120.7 42.75 115.37 42.75 115.37 46.24 120.21 46.24 120.21 47.5 115.37 47.5 115.37 51.37 120.7 51.37 120.7 52.63 113.99 52.63 113.99 41.49"></polygon>
            <path d="M129.07,52.63 L126.75,47.93 L124.12,47.93 L124.12,52.63 L122.73,52.63 L122.73,41.49 L126.28,41.49 C128.85,41.49 130.33,42.56 130.33,44.72 C130.33,46.29 129.56,47.27 128.13,47.69 L130.62,52.63 L129.07,52.63 L129.07,52.63 Z M126.28,46.67 C128.17,46.67 128.94,46.09 128.94,44.72 C128.94,43.35 128.17,42.75 126.28,42.75 L124.12,42.75 L124.12,46.67 L126.28,46.67 Z" id="Shape"></path>
            <polygon id="Path" points="140.13 41.49 140.13 52.63 138.77 52.63 133.96 44.2 133.96 52.63 132.57 52.63 132.57 41.49 133.89 41.49 138.73 50 138.73 41.49 140.12 41.49"></polygon>
            <polygon id="Path" points="149.99 52.63 146.25 47.08 144.2 49.6 144.2 52.63 142.81 52.63 142.81 41.49 144.2 41.49 144.2 47.48 149.04 41.49 150.83 41.49 147.17 45.96 151.66 52.63 150 52.63"></polygon>
            <path d="M152.82,52.63 L156.69,41.49 L157.98,41.49 L161.85,52.63 L160.38,52.63 L159.52,50.08 L155.13,50.08 L154.27,52.63 L152.8,52.63 L152.82,52.63 Z M155.58,48.82 L159.1,48.82 L157.34,43.59 L155.58,48.82 L155.58,48.82 Z" id="Shape"></path>
            <polygon id="Path" points="168.36 48.43 171.69 41.49 173.06 41.49 173.06 52.63 171.67 52.63 171.67 44.46 168.96 50.3 167.72 50.3 165.06 44.5 165.06 52.62 163.67 52.62 163.67 41.48 165.03 41.48 168.37 48.42"></polygon>
            <path d="M177.13,48.38 L177.13,52.63 L175.74,52.63 L175.74,41.49 L179.29,41.49 C181.86,41.49 183.34,42.78 183.34,44.94 C183.34,47.1 181.87,48.38 179.29,48.38 L177.13,48.38 L177.13,48.38 Z M179.29,47.12 C181.18,47.12 181.95,46.31 181.95,44.94 C181.95,43.57 181.18,42.74 179.29,42.74 L177.13,42.74 L177.13,47.11 L179.29,47.11 L179.29,47.12 Z" id="Shape"></path>
        </g>
    </g>
</svg>
