
<svg width="10px" height="40px" viewBox="0 0 10 40" version="1.1" xmlns="http://www.w3.org/2000/svg" xmlns:xlink="http://www.w3.org/1999/xlink">
    <g id="Page-1" stroke="none" stroke-width="1" fill="none" fill-rule="evenodd">
        <g id="menu" fill="#204D52" fill-rule="nonzero">
            <path d="M5,0 C2.23584906,0 0,2.23584906 0,5 C0,7.76415094 2.23584906,10 5,10 C7.76415094,10 10,7.76415094 10,5 C10,2.23584906 7.76415094,0 5,0 L5,0 Z" id="Shape"></path>
            <path d="M5,30 C2.23584906,30 0,32.2358491 0,35 C0,37.7641509 2.23584906,40 5,40 C7.76415094,40 10,37.7641509 10,35 C10,32.2358491 7.76415094,30 5,30 L5,30 Z" id="Shape"></path>
            <path d="M5,15 C2.23584906,15 0,17.2358491 0,20 C0,22.7641509 2.23584906,25 5,25 C7.76415094,25 10,22.7641509 10,20 C10,17.2358491 7.76415094,15 5,15 L5,15 Z" id="Shape"></path>
        </g>
    </g>
</svg>
