<?xml version="1.0" encoding="UTF-8"?><svg id="Ebene_2" xmlns="http://www.w3.org/2000/svg" viewBox="0 0 43 43"><defs><style>.cls-1{fill:#c3eada;}.cls-2{fill:#204d52;}</style></defs><g id="Ebene_1-2"><path class="cls-2" d="M0,0h43v28c0,8.28-6.72,15-15,15H0V0h0Z"/><path class="cls-1" d="M18.2,27.38l2.32-7.55c.49-1.78-.27-2.13-1.37-2.22l.11-.41h4.79l-3.04,9.87c-.65,1.91-.44,2.71.16,2.71s1.72-.88,2.84-2.71l.27.16c-.96,2.08-2.79,3.94-4.54,3.94-1.56,0-2.32-1.37-1.56-3.8ZM23.32,11.82c.98,0,1.78.77,1.78,1.75s-.79,1.75-1.78,1.75-1.78-.77-1.78-1.75.79-1.75,1.78-1.75Z"/></g></svg>