
<svg width="197px" height="99px" viewBox="0 0 197 99" version="1.1" xmlns="http://www.w3.org/2000/svg" xmlns:xlink="http://www.w3.org/1999/xlink">
    <g id="Page-1" stroke="none" stroke-width="1" fill="none" fill-rule="evenodd">
        <g id="Group" transform="translate(0.440000, 0.000000)" fill="currentColor" fill-rule="nonzero">
            <polygon id="Path" points="2.14 15.4 10.33 15.4 10.33 17.34 0 17.34 0 0.2 2.14 0.2"></polygon>
            <path d="M24.67,0.2 L24.67,10.36 C24.67,15.43 22.26,17.54 18.46,17.54 C14.66,17.54 12.25,15.43 12.25,10.39 L12.25,0.2 L14.39,0.2 L14.39,10.38 C14.39,14.13 15.83,15.59 18.46,15.59 C21.09,15.59 22.53,14.13 22.53,10.38 L22.53,0.2 L24.67,0.2 Z" id="Path"></path>
            <polygon id="Path" points="40.23 0.2 40.23 17.33 38.14 17.33 30.74 4.37 30.74 17.33 28.6 17.33 28.6 0.2 30.64 0.2 38.09 13.29 38.09 0.2"></polygon>
            <path d="M56.09,8.72 L56.09,9.71 C56.09,15.25 53.58,17.53 49.78,17.53 C45.98,17.53 43.57,15.25 43.57,9.71 L43.57,7.82 C43.57,2.28 45.98,0 49.78,0 C53.11,0 55.39,1.76 55.94,5.54 L53.85,5.54 C53.3,2.98 51.96,1.94 49.78,1.94 C47.15,1.94 45.71,3.58 45.71,7.82 L45.71,9.71 C45.71,13.96 47.15,15.59 49.78,15.59 C52.19,15.59 53.7,14.2 53.93,10.65 L49.86,10.65 L49.86,8.71 L56.09,8.71 L56.09,8.72 Z" id="Path"></path>
            <polygon id="Path" points="69.65 0.2 69.65 2.14 61.46 2.14 61.46 7.5 68.91 7.5 68.91 9.44 61.46 9.44 61.46 15.4 69.65 15.4 69.65 17.34 59.32 17.34 59.32 0.2"></polygon>
            <polygon id="Path" points="84.25 0.2 84.25 17.33 82.16 17.33 74.76 4.37 74.76 17.33 72.62 17.33 72.62 0.2 74.66 0.2 82.11 13.29 82.11 0.2"></polygon>
            <polygon id="Path" points="87.27 9.26 93.7 9.26 93.7 11.05 87.27 11.05 87.27 9.26"></polygon>
            <polygon id="Path" points="10.34 27.1 10.34 29.04 2.15 29.04 2.15 34.8 9.6 34.8 9.6 36.74 2.15 36.74 2.15 44.24 0.01 44.24 0.01 27.11 10.34 27.11"></polygon>
            <path d="M10.61,44.23 L16.57,27.1 L18.56,27.1 L24.52,44.23 L22.26,44.23 L20.94,40.31 L14.19,40.31 L12.87,44.23 L10.61,44.23 L10.61,44.23 Z M14.85,38.37 L20.26,38.37 L17.55,30.32 L14.84,38.37 L14.85,38.37 Z" id="Shape"></path>
            <path d="M36.13,32.44 C35.53,29.76 34.17,28.84 32.06,28.84 C29.43,28.84 27.99,30.48 27.99,34.72 L27.99,36.61 C27.99,40.86 29.43,42.49 32.06,42.49 C34.29,42.49 35.56,41.4 36.13,38.89 L38.19,38.89 C37.64,42.74 35.31,44.43 32.06,44.43 C28.26,44.43 25.85,42.15 25.85,36.61 L25.85,34.72 C25.85,29.18 28.26,26.9 32.06,26.9 C35.44,26.9 37.67,28.69 38.22,32.44 L36.13,32.44 Z" id="Path"></path>
            <polygon id="Path" points="43.21 34.4 50.56 34.4 50.56 27.1 52.7 27.1 52.7 44.23 50.56 44.23 50.56 36.33 43.21 36.33 43.21 44.23 41.07 44.23 41.07 27.1 43.21 27.1"></polygon>
            <path d="M55.32,44.23 L61.28,27.1 L63.27,27.1 L69.23,44.23 L66.97,44.23 L65.65,40.31 L58.9,40.31 L57.58,44.23 L55.32,44.23 L55.32,44.23 Z M58.55,22.65 L60.78,22.65 L60.78,24.88 L58.55,24.88 L58.55,22.65 Z M59.56,38.37 L64.97,38.37 L62.26,30.32 L59.55,38.37 L59.56,38.37 Z M63.76,22.65 L65.99,22.65 L65.99,24.88 L63.76,24.88 L63.76,22.65 Z" id="Shape"></path>
            <path d="M81.62,44.23 L78.04,37 L73.99,37 L73.99,44.23 L71.85,44.23 L71.85,27.1 L77.31,27.1 C81.26,27.1 83.54,28.74 83.54,32.07 C83.54,34.48 82.35,35.99 80.16,36.64 L83.98,44.24 L81.6,44.24 L81.62,44.23 Z M77.32,35.07 C80.23,35.07 81.42,34.18 81.42,32.07 C81.42,29.96 80.23,29.04 77.32,29.04 L73.99,29.04 L73.99,35.07 L77.32,35.07 Z" id="Shape"></path>
            <polygon id="Path" points="97.38 27.1 97.38 28.54 88.99 42.3 97.63 42.3 97.63 44.24 86.23 44.24 86.23 42.8 94.6 29.04 86.23 29.04 86.23 27.1"></polygon>
            <polygon id="Path" points="111.99 27.1 111.99 29.04 106.78 29.04 106.78 44.24 104.64 44.24 104.64 29.04 99.43 29.04 99.43 27.1"></polygon>
            <polygon id="Path" points="124.88 27.1 124.88 29.04 116.69 29.04 116.69 34.4 124.14 34.4 124.14 36.34 116.69 36.34 116.69 42.3 124.88 42.3 124.88 44.24 114.55 44.24 114.55 27.11 124.88 27.11"></polygon>
            <polygon id="Path" points="2.39 71.13 0.25 71.13 0.25 54 2.39 54"></polygon>
            <polygon id="Path" points="18.07 53.99 18.07 71.12 15.98 71.12 8.58 58.16 8.58 71.12 6.44 71.12 6.44 53.99 8.48 53.99 15.93 67.08 15.93 53.99 18.07 53.99"></polygon>
            <path d="M29.49,71.13 L29.49,54 L34.95,54 C38.75,54 41.16,56.14 41.16,61.67 L41.16,63.46 C41.16,69 38.75,71.13 34.95,71.13 L29.49,71.13 L29.49,71.13 Z M39.02,63.46 L39.02,61.67 C39.02,57.42 37.58,55.93 34.95,55.93 L31.62,55.93 L31.62,69.19 L34.95,69.19 C37.58,69.19 39.02,67.7 39.02,63.45 L39.02,63.46 Z" id="Shape"></path>
            <polygon id="Path" points="54.83 53.99 54.83 55.93 46.64 55.93 46.64 61.29 54.09 61.29 54.09 63.23 46.64 63.23 46.64 69.19 54.83 69.19 54.83 71.13 44.5 71.13 44.5 54 54.83 54"></polygon>
            <path d="M67.57,71.13 L63.99,63.9 L59.94,63.9 L59.94,71.13 L57.8,71.13 L57.8,54 L63.26,54 C67.21,54 69.49,55.64 69.49,58.97 C69.49,61.38 68.3,62.89 66.11,63.54 L69.93,71.14 L67.55,71.14 L67.57,71.13 Z M63.27,61.97 C66.18,61.97 67.37,61.08 67.37,58.97 C67.37,56.86 66.18,55.94 63.27,55.94 L59.94,55.94 L59.94,61.97 L63.27,61.97 Z" id="Shape"></path>
            <path d="M5.24,80.89 C9.24,80.89 11.15,82.4 11.15,85.26 C11.15,87.05 9.98,88.69 8.32,89.08 C10.48,89.48 11.7,90.92 11.7,93.1 C11.7,95.58 10.19,98.02 5.79,98.02 L7.10542736e-15,98.02 L7.10542736e-15,80.89 L5.24,80.89 L5.24,80.89 Z M2.14,88.17 L5.62,88.17 C8.03,88.17 9.02,86.95 9.02,85.26 C9.02,83.75 8.25,82.8 5.25,82.8 L2.15,82.8 L2.15,88.16 L2.14,88.17 Z M2.14,96.09 L5.79,96.09 C8.37,96.09 9.56,94.97 9.56,93.11 C9.56,91.05 8.22,90.11 5.39,90.11 L2.14,90.11 L2.14,96.09 Z" id="Shape"></path>
            <polygon id="Path" points="25.1 80.89 25.1 82.83 16.91 82.83 16.91 88.19 24.36 88.19 24.36 90.13 16.91 90.13 16.91 96.09 25.1 96.09 25.1 98.03 14.77 98.03 14.77 80.9 25.1 80.9"></polygon>
            <path d="M37.84,98.03 L34.26,90.8 L30.21,90.8 L30.21,98.03 L28.07,98.03 L28.07,80.9 L33.53,80.9 C37.48,80.9 39.76,82.54 39.76,85.87 C39.76,88.28 38.57,89.79 36.38,90.44 L40.2,98.04 L37.82,98.04 L37.84,98.03 Z M33.54,88.86 C36.45,88.86 37.64,87.97 37.64,85.86 C37.64,83.75 36.45,82.83 33.54,82.83 L30.21,82.83 L30.21,88.86 L33.54,88.86 Z" id="Shape"></path>
            <polygon id="Path" points="54.13 80.89 54.13 82.83 48.92 82.83 48.92 98.03 46.78 98.03 46.78 82.83 41.57 82.83 41.57 80.89 54.13 80.89"></polygon>
            <path d="M61.88,98.22 C58.08,98.22 55.67,95.94 55.67,90.4 L55.67,88.51 C55.67,82.97 58.08,80.69 61.88,80.69 C65.68,80.69 68.09,82.97 68.09,88.51 L68.09,90.4 C68.09,95.94 65.68,98.22 61.88,98.22 Z M57.81,90.4 C57.81,94.65 59.25,96.28 61.88,96.28 C64.51,96.28 65.95,94.64 65.95,90.4 L65.95,88.51 C65.95,84.26 64.51,82.63 61.88,82.63 C59.25,82.63 57.81,84.27 57.81,88.51 L57.81,90.4 Z" id="Shape"></path>
            <polygon id="Path" points="73.57 96.09 81.76 96.09 81.76 98.03 71.43 98.03 71.43 80.9 73.57 80.9 73.57 96.1"></polygon>
            <path d="M84.27,98.03 L84.27,80.9 L89.73,80.9 C93.53,80.9 95.94,83.04 95.94,88.57 L95.94,90.36 C95.94,95.9 93.53,98.03 89.73,98.03 L84.27,98.03 L84.27,98.03 Z M93.81,90.35 L93.81,88.56 C93.81,84.31 92.37,82.82 89.74,82.82 L86.41,82.82 L86.41,96.08 L89.74,96.08 C92.37,96.08 93.81,94.59 93.81,90.34 L93.81,90.35 Z" id="Shape"></path>
            <path d="M108.2,84.69 C107.28,83.5 106.29,82.63 104.13,82.63 C102.14,82.63 100.8,83.52 100.8,85.31 C100.8,87.35 102.34,88.04 104.85,88.49 C108.15,89.06 110.16,90.25 110.16,93.43 C110.16,95.66 108.67,98.22 104.4,98.22 C101.62,98.22 99.58,97.28 98.29,95.41 L100.05,94.19 C101.17,95.51 102.16,96.28 104.4,96.28 C107.21,96.28 108.03,94.99 108.03,93.52 C108.03,91.91 107.21,90.81 103.98,90.32 C100.75,89.83 98.67,88.28 98.67,85.3 C98.67,82.84 100.28,80.68 104.21,80.68 C106.94,80.68 108.65,81.6 109.87,83.49 L108.21,84.68 L108.2,84.69 Z" id="Path"></path>
            <polygon id="Path" points="124.61 80.89 124.61 82.83 119.4 82.83 119.4 98.03 117.26 98.03 117.26 82.83 112.05 82.83 112.05 80.89"></polygon>
            <path d="M136.93,98.03 L133.35,90.8 L129.3,90.8 L129.3,98.03 L127.16,98.03 L127.16,80.9 L132.62,80.9 C136.57,80.9 138.85,82.54 138.85,85.87 C138.85,88.28 137.66,89.79 135.47,90.44 L139.29,98.04 L136.91,98.04 L136.93,98.03 Z M132.64,88.86 C135.55,88.86 136.74,87.97 136.74,85.86 C136.74,83.75 135.55,82.83 132.64,82.83 L129.31,82.83 L129.31,88.86 L132.64,88.86 Z" id="Shape"></path>
            <path d="M141.31,98.03 L147.27,80.9 L149.26,80.9 L155.22,98.03 L152.96,98.03 L151.64,94.11 L144.89,94.11 L143.57,98.03 L141.31,98.03 L141.31,98.03 Z M145.56,92.17 L150.97,92.17 L148.26,84.12 L145.55,92.17 L145.56,92.17 Z" id="Shape"></path>
            <path d="M166.87,84.69 C165.95,83.5 164.96,82.63 162.8,82.63 C160.81,82.63 159.47,83.52 159.47,85.31 C159.47,87.35 161.01,88.04 163.52,88.49 C166.82,89.06 168.83,90.25 168.83,93.43 C168.83,95.66 167.34,98.22 163.07,98.22 C160.29,98.22 158.25,97.28 156.96,95.41 L158.72,94.19 C159.84,95.51 160.83,96.28 163.07,96.28 C165.88,96.28 166.7,94.99 166.7,93.52 C166.7,91.91 165.88,90.81 162.65,90.32 C159.42,89.83 157.34,88.28 157.34,85.3 C157.34,82.84 158.95,80.68 162.88,80.68 C165.61,80.68 167.32,81.6 168.54,83.49 L166.88,84.68 L166.87,84.69 Z" id="Path"></path>
            <path d="M181.2,84.69 C180.28,83.5 179.29,82.63 177.13,82.63 C175.14,82.63 173.8,83.52 173.8,85.31 C173.8,87.35 175.34,88.04 177.85,88.49 C181.15,89.06 183.16,90.25 183.16,93.43 C183.16,95.66 181.67,98.22 177.4,98.22 C174.62,98.22 172.58,97.28 171.29,95.41 L173.05,94.19 C174.17,95.51 175.16,96.28 177.4,96.28 C180.21,96.28 181.03,94.99 181.03,93.52 C181.03,91.91 180.21,90.81 176.98,90.32 C173.75,89.82 171.67,88.28 171.67,85.3 C171.67,82.84 173.28,80.68 177.21,80.68 C179.94,80.68 181.65,81.6 182.87,83.49 L181.21,84.68 L181.2,84.69 Z" id="Path"></path>
            <polygon id="Path" points="196.56 80.89 196.56 82.83 188.37 82.83 188.37 88.19 195.82 88.19 195.82 90.13 188.37 90.13 188.37 96.09 196.56 96.09 196.56 98.03 186.23 98.03 186.23 80.9 196.56 80.9"></polygon>
        </g>
    </g>
</svg>
